<svg xmlns="http://www.w3.org/2000/svg" width="685" height="77.42" viewBox="0 0 137 15.42">
  <title>sumcumo</title>
  <path
    d="M52.22.92v14.5h-2.9V3.82H43.51v11.6h-2.9V3.82h-5.8v11.6h-2.9V.92ZM0,3.82v5.8H8.7v2.9H0v2.9H11.6V6.72H2.9V3.82Zm2.9,0V.92h8.7v2.9ZM17.4.92H14.5v11.6h2.9ZM29,3.82v11.6H17.4v-2.9h8.7V3.82Zm29,8.7h-2.9v2.9H58Zm5.84,2.9v-2.9h8.7v2.9Zm0-11.6h8.7V.92H61v11.6h2.91Zm29,0h2.9v11.6H92.83ZM95.73.92v2.9h5.8v8.7h2.9V3.82h5.8v11.6h2.9V.92ZM87,.92v11.6h-8.7V3.82H75.42v11.6H89.93V.92Zm40.61,2.9v8.7h-8.7V3.82h8.7V.92H116v14.5h14.5V3.82Z"/>
  <path
    d="M134.53,0A2.47,2.47,0,1,0,137,2.48h0A2.49,2.49,0,0,0,134.53,0Zm2,2.47a2,2,0,1,1-2-2A2,2,0,0,1,136.54,2.47Zm-1.36.24a.81.81,0,0,0,.53-.78c0-.51-.41-.85-1-.85h-1.08a.12.12,0,0,0-.13.12V3.61a.12.12,0,0,0,.13.12H134a.12.12,0,0,0,.13-.12V2.83h.43l.65.86a.16.16,0,0,0,.1.05h.44a.13.13,0,0,0,.13-.13.11.11,0,0,0,0-.08Zm-1.09-1.06h.58c.16,0,.43,0,.43.3s-.35.3-.45.3h-.56Z"/>
</svg>
